<mxfile host="Electron" modified="2024-07-06T22:11:10.719Z" agent="Mozilla/5.0 (X11; Linux x86_64) AppleWebKit/537.36 (KHTML, like Gecko) draw.io/24.5.1 Chrome/124.0.6367.207 Electron/30.0.6 Safari/537.36" etag="JFjoZVkjM-KP6MKVRjJF" version="24.5.1" type="device">
  <diagram id="C5RBs43oDa-KdzZeNtuy" name="Page-1">
    <mxGraphModel dx="1314" dy="1192" grid="1" gridSize="10" guides="1" tooltips="1" connect="1" arrows="1" fold="1" page="1" pageScale="1" pageWidth="827" pageHeight="1169" math="0" shadow="0">
      <root>
        <mxCell id="WIyWlLk6GJQsqaUBKTNV-0" />
        <mxCell id="WIyWlLk6GJQsqaUBKTNV-1" parent="WIyWlLk6GJQsqaUBKTNV-0" />
        <mxCell id="kn7FEWuAAPVAVBP4rEsJ-0" value="Handler" style="rounded=0;whiteSpace=wrap;html=1;fillColor=#dae8fc;strokeColor=#6c8ebf;" vertex="1" parent="WIyWlLk6GJQsqaUBKTNV-1">
          <mxGeometry x="170" y="320" width="120" height="40" as="geometry" />
        </mxCell>
        <mxCell id="kn7FEWuAAPVAVBP4rEsJ-1" value="Scheduler" style="rounded=0;whiteSpace=wrap;html=1;fillColor=#dae8fc;strokeColor=#6c8ebf;" vertex="1" parent="WIyWlLk6GJQsqaUBKTNV-1">
          <mxGeometry x="667" y="320" width="120" height="40" as="geometry" />
        </mxCell>
        <mxCell id="kn7FEWuAAPVAVBP4rEsJ-2" value="handle" style="rounded=0;whiteSpace=wrap;html=1;fillColor=#d5e8d4;strokeColor=#82b366;" vertex="1" parent="WIyWlLk6GJQsqaUBKTNV-1">
          <mxGeometry x="170" y="360" width="120" height="40" as="geometry" />
        </mxCell>
        <mxCell id="kn7FEWuAAPVAVBP4rEsJ-53" value="" style="edgeStyle=orthogonalEdgeStyle;rounded=0;orthogonalLoop=1;jettySize=auto;html=1;" edge="1" parent="WIyWlLk6GJQsqaUBKTNV-1" source="kn7FEWuAAPVAVBP4rEsJ-3" target="kn7FEWuAAPVAVBP4rEsJ-51">
          <mxGeometry relative="1" as="geometry" />
        </mxCell>
        <mxCell id="kn7FEWuAAPVAVBP4rEsJ-3" value="schedule" style="rounded=0;whiteSpace=wrap;html=1;fillColor=#d5e8d4;strokeColor=#82b366;" vertex="1" parent="WIyWlLk6GJQsqaUBKTNV-1">
          <mxGeometry x="667" y="360" width="120" height="40" as="geometry" />
        </mxCell>
        <mxCell id="kn7FEWuAAPVAVBP4rEsJ-4" value="work" style="rounded=0;whiteSpace=wrap;html=1;fillColor=#ffe6cc;strokeColor=#d79b00;" vertex="1" parent="WIyWlLk6GJQsqaUBKTNV-1">
          <mxGeometry x="840" y="440" width="120" height="40" as="geometry" />
        </mxCell>
        <mxCell id="kn7FEWuAAPVAVBP4rEsJ-5" value="Очередь задач" style="rounded=0;whiteSpace=wrap;html=1;fillColor=#e1d5e7;strokeColor=#9673a6;" vertex="1" parent="WIyWlLk6GJQsqaUBKTNV-1">
          <mxGeometry x="380" y="440" width="130" height="40" as="geometry" />
        </mxCell>
        <mxCell id="kn7FEWuAAPVAVBP4rEsJ-6" value="work" style="rounded=0;whiteSpace=wrap;html=1;fillColor=#ffe6cc;strokeColor=#d79b00;" vertex="1" parent="WIyWlLk6GJQsqaUBKTNV-1">
          <mxGeometry x="840" y="520" width="120" height="40" as="geometry" />
        </mxCell>
        <mxCell id="kn7FEWuAAPVAVBP4rEsJ-7" value="" style="text;html=1;align=center;verticalAlign=middle;whiteSpace=wrap;rounded=0;fillColor=#dae8fc;strokeColor=#6c8ebf;" vertex="1" parent="WIyWlLk6GJQsqaUBKTNV-1">
          <mxGeometry x="10" y="490" width="40" height="30" as="geometry" />
        </mxCell>
        <mxCell id="kn7FEWuAAPVAVBP4rEsJ-8" value="" style="text;html=1;align=center;verticalAlign=middle;whiteSpace=wrap;rounded=0;fillColor=#e1d5e7;strokeColor=#9673a6;" vertex="1" parent="WIyWlLk6GJQsqaUBKTNV-1">
          <mxGeometry x="10" y="520" width="40" height="30" as="geometry" />
        </mxCell>
        <mxCell id="kn7FEWuAAPVAVBP4rEsJ-9" value="" style="text;html=1;align=center;verticalAlign=middle;whiteSpace=wrap;rounded=0;fillColor=#d5e8d4;strokeColor=#82b366;" vertex="1" parent="WIyWlLk6GJQsqaUBKTNV-1">
          <mxGeometry x="10" y="550" width="40" height="30" as="geometry" />
        </mxCell>
        <mxCell id="kn7FEWuAAPVAVBP4rEsJ-11" value="класс" style="text;html=1;align=center;verticalAlign=middle;whiteSpace=wrap;rounded=0;fillColor=#dae8fc;strokeColor=#6c8ebf;" vertex="1" parent="WIyWlLk6GJQsqaUBKTNV-1">
          <mxGeometry x="50" y="490" width="120" height="30" as="geometry" />
        </mxCell>
        <mxCell id="kn7FEWuAAPVAVBP4rEsJ-12" value="механизм коммуникации" style="text;html=1;align=center;verticalAlign=middle;whiteSpace=wrap;rounded=0;fillColor=#e1d5e7;strokeColor=#9673a6;" vertex="1" parent="WIyWlLk6GJQsqaUBKTNV-1">
          <mxGeometry x="50" y="520" width="120" height="30" as="geometry" />
        </mxCell>
        <mxCell id="kn7FEWuAAPVAVBP4rEsJ-13" value="корутина" style="text;html=1;align=center;verticalAlign=middle;whiteSpace=wrap;rounded=0;fillColor=#d5e8d4;strokeColor=#82b366;" vertex="1" parent="WIyWlLk6GJQsqaUBKTNV-1">
          <mxGeometry x="50" y="550" width="120" height="30" as="geometry" />
        </mxCell>
        <mxCell id="kn7FEWuAAPVAVBP4rEsJ-14" value="" style="text;html=1;align=center;verticalAlign=middle;whiteSpace=wrap;rounded=0;fillColor=#ffe6cc;strokeColor=#d79b00;" vertex="1" parent="WIyWlLk6GJQsqaUBKTNV-1">
          <mxGeometry x="10" y="580" width="40" height="30" as="geometry" />
        </mxCell>
        <mxCell id="kn7FEWuAAPVAVBP4rEsJ-15" value="процесс" style="text;html=1;align=center;verticalAlign=middle;whiteSpace=wrap;rounded=0;fillColor=#ffe6cc;strokeColor=#d79b00;" vertex="1" parent="WIyWlLk6GJQsqaUBKTNV-1">
          <mxGeometry x="50" y="580" width="120" height="30" as="geometry" />
        </mxCell>
        <mxCell id="kn7FEWuAAPVAVBP4rEsJ-17" value="Client" style="shape=umlActor;verticalLabelPosition=bottom;verticalAlign=top;html=1;outlineConnect=0;" vertex="1" parent="WIyWlLk6GJQsqaUBKTNV-1">
          <mxGeometry y="290" width="30" height="60" as="geometry" />
        </mxCell>
        <mxCell id="kn7FEWuAAPVAVBP4rEsJ-18" value="" style="endArrow=classic;html=1;rounded=0;entryX=0;entryY=0.25;entryDx=0;entryDy=0;" edge="1" parent="WIyWlLk6GJQsqaUBKTNV-1" target="kn7FEWuAAPVAVBP4rEsJ-2">
          <mxGeometry width="50" height="50" relative="1" as="geometry">
            <mxPoint x="50" y="370" as="sourcePoint" />
            <mxPoint x="120" y="360" as="targetPoint" />
          </mxGeometry>
        </mxCell>
        <mxCell id="kn7FEWuAAPVAVBP4rEsJ-19" value="image POST /" style="text;html=1;align=center;verticalAlign=middle;whiteSpace=wrap;rounded=0;" vertex="1" parent="WIyWlLk6GJQsqaUBKTNV-1">
          <mxGeometry x="65" y="330" width="90" height="30" as="geometry" />
        </mxCell>
        <mxCell id="kn7FEWuAAPVAVBP4rEsJ-21" value="" style="endArrow=classic;html=1;rounded=0;exitX=0;exitY=0.75;exitDx=0;exitDy=0;" edge="1" parent="WIyWlLk6GJQsqaUBKTNV-1" source="kn7FEWuAAPVAVBP4rEsJ-2">
          <mxGeometry width="50" height="50" relative="1" as="geometry">
            <mxPoint x="60" y="480" as="sourcePoint" />
            <mxPoint x="50" y="390" as="targetPoint" />
          </mxGeometry>
        </mxCell>
        <mxCell id="kn7FEWuAAPVAVBP4rEsJ-29" value="Очередь результатов" style="rounded=0;whiteSpace=wrap;html=1;fillColor=#e1d5e7;strokeColor=#9673a6;" vertex="1" parent="WIyWlLk6GJQsqaUBKTNV-1">
          <mxGeometry x="380" y="520" width="130" height="40" as="geometry" />
        </mxCell>
        <mxCell id="kn7FEWuAAPVAVBP4rEsJ-32" value="" style="endArrow=classic;html=1;rounded=0;entryX=0;entryY=0.5;entryDx=0;entryDy=0;exitX=0.75;exitY=1;exitDx=0;exitDy=0;" edge="1" parent="WIyWlLk6GJQsqaUBKTNV-1" target="kn7FEWuAAPVAVBP4rEsJ-5">
          <mxGeometry width="50" height="50" relative="1" as="geometry">
            <mxPoint x="260" y="400" as="sourcePoint" />
            <mxPoint x="255" y="450" as="targetPoint" />
            <Array as="points">
              <mxPoint x="260" y="460" />
            </Array>
          </mxGeometry>
        </mxCell>
        <mxCell id="kn7FEWuAAPVAVBP4rEsJ-34" value="" style="endArrow=classic;html=1;rounded=0;entryX=0.25;entryY=1;entryDx=0;entryDy=0;exitX=0;exitY=0.5;exitDx=0;exitDy=0;" edge="1" parent="WIyWlLk6GJQsqaUBKTNV-1" source="kn7FEWuAAPVAVBP4rEsJ-29">
          <mxGeometry width="50" height="50" relative="1" as="geometry">
            <mxPoint x="150" y="520" as="sourcePoint" />
            <mxPoint x="200" y="400" as="targetPoint" />
            <Array as="points">
              <mxPoint x="200" y="540" />
            </Array>
          </mxGeometry>
        </mxCell>
        <mxCell id="kn7FEWuAAPVAVBP4rEsJ-36" value="" style="endArrow=classic;html=1;rounded=0;exitX=1;exitY=0.5;exitDx=0;exitDy=0;entryX=0;entryY=0.5;entryDx=0;entryDy=0;" edge="1" parent="WIyWlLk6GJQsqaUBKTNV-1" source="kn7FEWuAAPVAVBP4rEsJ-5" target="kn7FEWuAAPVAVBP4rEsJ-3">
          <mxGeometry width="50" height="50" relative="1" as="geometry">
            <mxPoint x="490" y="460" as="sourcePoint" />
            <mxPoint x="560" y="400" as="targetPoint" />
            <Array as="points">
              <mxPoint x="560" y="460" />
              <mxPoint x="640" y="460" />
              <mxPoint x="640" y="380" />
            </Array>
          </mxGeometry>
        </mxCell>
        <mxCell id="kn7FEWuAAPVAVBP4rEsJ-40" value="" style="endArrow=classic;html=1;rounded=0;entryX=1;entryY=0.5;entryDx=0;entryDy=0;exitX=0;exitY=0.5;exitDx=0;exitDy=0;" edge="1" parent="WIyWlLk6GJQsqaUBKTNV-1" source="kn7FEWuAAPVAVBP4rEsJ-55" target="kn7FEWuAAPVAVBP4rEsJ-29">
          <mxGeometry width="50" height="50" relative="1" as="geometry">
            <mxPoint x="600" y="400" as="sourcePoint" />
            <mxPoint x="570" y="500" as="targetPoint" />
            <Array as="points">
              <mxPoint x="540" y="620" />
              <mxPoint x="540" y="540" />
            </Array>
          </mxGeometry>
        </mxCell>
        <mxCell id="kn7FEWuAAPVAVBP4rEsJ-41" value="image" style="text;html=1;align=center;verticalAlign=middle;whiteSpace=wrap;rounded=0;" vertex="1" parent="WIyWlLk6GJQsqaUBKTNV-1">
          <mxGeometry x="70" y="400" width="60" height="30" as="geometry" />
        </mxCell>
        <mxCell id="kn7FEWuAAPVAVBP4rEsJ-43" value="Worker" style="rounded=0;whiteSpace=wrap;html=1;fillColor=#dae8fc;strokeColor=#6c8ebf;" vertex="1" parent="WIyWlLk6GJQsqaUBKTNV-1">
          <mxGeometry x="840" y="400" width="120" height="40" as="geometry" />
        </mxCell>
        <mxCell id="kn7FEWuAAPVAVBP4rEsJ-45" value="work" style="rounded=0;whiteSpace=wrap;html=1;fillColor=#ffe6cc;strokeColor=#d79b00;" vertex="1" parent="WIyWlLk6GJQsqaUBKTNV-1">
          <mxGeometry x="840" y="600" width="120" height="40" as="geometry" />
        </mxCell>
        <mxCell id="kn7FEWuAAPVAVBP4rEsJ-47" value="Broker" style="rounded=0;whiteSpace=wrap;html=1;fillColor=#dae8fc;strokeColor=#6c8ebf;" vertex="1" parent="WIyWlLk6GJQsqaUBKTNV-1">
          <mxGeometry x="380" y="400" width="130" height="40" as="geometry" />
        </mxCell>
        <mxCell id="kn7FEWuAAPVAVBP4rEsJ-50" value="PubSub" style="text;html=1;align=center;verticalAlign=middle;whiteSpace=wrap;rounded=0;" vertex="1" parent="WIyWlLk6GJQsqaUBKTNV-1">
          <mxGeometry x="380" y="370" width="60" height="30" as="geometry" />
        </mxCell>
        <mxCell id="kn7FEWuAAPVAVBP4rEsJ-54" value="" style="edgeStyle=orthogonalEdgeStyle;rounded=0;orthogonalLoop=1;jettySize=auto;html=1;" edge="1" parent="WIyWlLk6GJQsqaUBKTNV-1" source="kn7FEWuAAPVAVBP4rEsJ-51" target="kn7FEWuAAPVAVBP4rEsJ-52">
          <mxGeometry relative="1" as="geometry" />
        </mxCell>
        <mxCell id="kn7FEWuAAPVAVBP4rEsJ-51" value="stage_1" style="rounded=0;whiteSpace=wrap;html=1;fillColor=#d5e8d4;strokeColor=#82b366;" vertex="1" parent="WIyWlLk6GJQsqaUBKTNV-1">
          <mxGeometry x="667" y="440" width="120" height="40" as="geometry" />
        </mxCell>
        <mxCell id="kn7FEWuAAPVAVBP4rEsJ-56" value="" style="edgeStyle=orthogonalEdgeStyle;rounded=0;orthogonalLoop=1;jettySize=auto;html=1;" edge="1" parent="WIyWlLk6GJQsqaUBKTNV-1" source="kn7FEWuAAPVAVBP4rEsJ-52" target="kn7FEWuAAPVAVBP4rEsJ-55">
          <mxGeometry relative="1" as="geometry" />
        </mxCell>
        <mxCell id="kn7FEWuAAPVAVBP4rEsJ-52" value="stage_2" style="rounded=0;whiteSpace=wrap;html=1;fillColor=#d5e8d4;strokeColor=#82b366;" vertex="1" parent="WIyWlLk6GJQsqaUBKTNV-1">
          <mxGeometry x="667" y="520" width="120" height="40" as="geometry" />
        </mxCell>
        <mxCell id="kn7FEWuAAPVAVBP4rEsJ-55" value="stage_3" style="rounded=0;whiteSpace=wrap;html=1;fillColor=#d5e8d4;strokeColor=#82b366;" vertex="1" parent="WIyWlLk6GJQsqaUBKTNV-1">
          <mxGeometry x="667" y="600" width="120" height="40" as="geometry" />
        </mxCell>
        <mxCell id="kn7FEWuAAPVAVBP4rEsJ-57" value="Broker.sub_result()" style="text;html=1;align=center;verticalAlign=middle;whiteSpace=wrap;rounded=0;" vertex="1" parent="WIyWlLk6GJQsqaUBKTNV-1">
          <mxGeometry x="230" y="510" width="130" height="30" as="geometry" />
        </mxCell>
        <mxCell id="kn7FEWuAAPVAVBP4rEsJ-58" value="Broker.pub_task()" style="text;html=1;align=center;verticalAlign=middle;whiteSpace=wrap;rounded=0;" vertex="1" parent="WIyWlLk6GJQsqaUBKTNV-1">
          <mxGeometry x="280" y="425" width="80" height="30" as="geometry" />
        </mxCell>
        <mxCell id="kn7FEWuAAPVAVBP4rEsJ-61" value="Broker.sub_task()" style="text;html=1;align=center;verticalAlign=middle;whiteSpace=wrap;rounded=0;" vertex="1" parent="WIyWlLk6GJQsqaUBKTNV-1">
          <mxGeometry x="540" y="425" width="80" height="30" as="geometry" />
        </mxCell>
        <mxCell id="kn7FEWuAAPVAVBP4rEsJ-63" value="" style="endArrow=classic;html=1;rounded=0;entryX=0;entryY=0.5;entryDx=0;entryDy=0;exitX=1;exitY=0.5;exitDx=0;exitDy=0;" edge="1" parent="WIyWlLk6GJQsqaUBKTNV-1" source="kn7FEWuAAPVAVBP4rEsJ-51" target="kn7FEWuAAPVAVBP4rEsJ-4">
          <mxGeometry width="50" height="50" relative="1" as="geometry">
            <mxPoint x="750" y="520" as="sourcePoint" />
            <mxPoint x="800" y="470" as="targetPoint" />
          </mxGeometry>
        </mxCell>
        <mxCell id="kn7FEWuAAPVAVBP4rEsJ-64" value="" style="endArrow=classic;html=1;rounded=0;entryX=0;entryY=0.5;entryDx=0;entryDy=0;exitX=1;exitY=0.5;exitDx=0;exitDy=0;" edge="1" parent="WIyWlLk6GJQsqaUBKTNV-1">
          <mxGeometry width="50" height="50" relative="1" as="geometry">
            <mxPoint x="787" y="539.5" as="sourcePoint" />
            <mxPoint x="840" y="539.5" as="targetPoint" />
          </mxGeometry>
        </mxCell>
        <mxCell id="kn7FEWuAAPVAVBP4rEsJ-65" value="" style="endArrow=classic;html=1;rounded=0;entryX=0;entryY=0.5;entryDx=0;entryDy=0;exitX=1;exitY=0.5;exitDx=0;exitDy=0;" edge="1" parent="WIyWlLk6GJQsqaUBKTNV-1">
          <mxGeometry width="50" height="50" relative="1" as="geometry">
            <mxPoint x="787" y="619.5" as="sourcePoint" />
            <mxPoint x="840" y="619.5" as="targetPoint" />
          </mxGeometry>
        </mxCell>
        <mxCell id="kn7FEWuAAPVAVBP4rEsJ-66" value="Broker.pub_result()" style="text;html=1;align=center;verticalAlign=middle;whiteSpace=wrap;rounded=0;" vertex="1" parent="WIyWlLk6GJQsqaUBKTNV-1">
          <mxGeometry x="560" y="590" width="80" height="30" as="geometry" />
        </mxCell>
        <mxCell id="kn7FEWuAAPVAVBP4rEsJ-68" value="Создание шаблона" style="text;html=1;align=center;verticalAlign=middle;whiteSpace=wrap;rounded=0;" vertex="1" parent="WIyWlLk6GJQsqaUBKTNV-1">
          <mxGeometry x="965" y="600" width="110" height="40" as="geometry" />
        </mxCell>
        <mxCell id="kn7FEWuAAPVAVBP4rEsJ-69" value="Распознавание символов" style="text;html=1;align=center;verticalAlign=middle;whiteSpace=wrap;rounded=0;" vertex="1" parent="WIyWlLk6GJQsqaUBKTNV-1">
          <mxGeometry x="960" y="520" width="120" height="40" as="geometry" />
        </mxCell>
        <mxCell id="kn7FEWuAAPVAVBP4rEsJ-70" value="Детекция символов номера" style="text;html=1;align=center;verticalAlign=middle;whiteSpace=wrap;rounded=0;" vertex="1" parent="WIyWlLk6GJQsqaUBKTNV-1">
          <mxGeometry x="960" y="440" width="120" height="40" as="geometry" />
        </mxCell>
      </root>
    </mxGraphModel>
  </diagram>
</mxfile>
